# xmcd CD database file
#
# Track frame offsets:
#	150
#	46326
#	116746
#	165137
#	199379
#	244489
#	286382
#
# Disc length: 4242 seconds
#
# Revision: 0
# Processed by: cddbd v1.5.2PL0 Copyright (c) Steve Scherf et al.
# Submitted via: Feurio! 1.68 - http://www.feurio.com
#
DISCID=62109007
DTITLE=Rory Gallagher - Cradle Rock [CD1]
DYEAR=2015
DGENRE=Blues
TTITLE0=Messin' With The Kid
TTITLE1=Cradle Rock - Just A Little Bit
TTITLE2=I Wonder Who
TTITLE3=Tattoo'd Lady
TTITLE4=Walk On Hot Coals
TTITLE5=A Million Miles Away
TTITLE6=Goin' To My Hometown
EXTD=FM Broadcast - Kasnsa City 1974
EXTT0=
EXTT1=
EXTT2=
EXTT3=
EXTT4=
EXTT5=
EXTT6=
PLAYORDER=
